<svg xmlns="http://www.w3.org/2000/svg" viewBox="0 0 1287.89 1596.26"><defs><style>.cls-1{fill:#2e7d32;}.cls-2{fill:#fff;}</style></defs><g id="Calque_3" data-name="Calque 3"><path class="cls-1" d="M1084.44,540.83H1083c0,.69.06,1.35.1,2q-1.26,1.92-2.51,3.86c-1.76.42-3.41,1-4.29,3a1.59,1.59,0,0,1-1.28.65c-3.73-.33-6.29,4-10.37,2.57-.63-.22-1.7.95-2.61,1.38-3.12,1.5-6.15,3.84-9.41,4.24-7.35.87-14.06,3.65-20.65,6.42-3.94,1.68-8.37,3.47-11.13,7.46a4.22,4.22,0,0,1-4,1,45.51,45.51,0,0,1-8.16-4.9c-2.38-1.76-4.19-4.5-7.84-2.86-.62.28-1.62-.25-2.41-.51a8.74,8.74,0,0,1-5.08-4.61c-1.56-2.83-6.83-2.66-7.33.24-.74,4.23-3.14,5.14-6.65,4.89-1.54,3.58-4,6.32-4.56,10.21-.38,2.85-1.91,5.4-5.72,5.19a2.4,2.4,0,0,0-2.4,3.18,7.72,7.72,0,0,1-2.25,8.19,5,5,0,0,0-1.11,2.79c-.79,5.41-4.54,7.75-9.29,8.72-5.73,1.17-11-.37-16-3.25-3-1.72-6.7-4-9.78-3.58-5.25.65-9.7-1.11-14.26-2.53-4.82-1.51-9.2-1.75-13.69.71-1,.54-2.41,1.11-3.36.81-4.45-1.41-9.53-.51-13.44-4-.81-.72-3-1.07-3.66-.52-3.75,2.89-6.89.7-9-1.65-3.86-4.31-9-5.14-14-6.44-1.85-.49-4,0-6,.27-4.18.52-8.32,1.33-12.51,1.67-3,.25-10.55-5.72-11.16-8.46a2.79,2.79,0,0,1,0-1.49c1-2.73-.46-4.49-2.3-6.21a12.18,12.18,0,0,1-2.41-3.21,10,10,0,0,0-6.05-5,16.59,16.59,0,0,1-5.53-3.32,44.58,44.58,0,0,0-16.49-9.45c-2.37-.83-4.33-1.64-5.57-3.92a10.09,10.09,0,0,0-6.36-4.74c-7.23-2.17-14.59-2-22-1-1,.14-2,1.1-3,1.79-4.32,3.19-8.6,6.45-12.93,9.62a4.22,4.22,0,0,1-1.89.65c-3.83.48-5.8,2.91-7.3,6.24a35.81,35.81,0,0,1-4.51,7.27c-4.61,6-10.29,11.11-12.89,18.59-1.62,4.66-5.72,6.75-10.49,6.21-1.9-.21-3.6-.8-4.86,1.34s-.09,3.69,1.08,5.44c3.53,5.37,5.63,11.25,4.77,17.77-.32,2.47-1.61,4.82-1.93,7.29-1,7.56-1.33,15.11.44,22.68a54.94,54.94,0,0,1,.9,21.19c-.45,2.82-1.39,5.13-4,6.67a7.09,7.09,0,0,0-2.77,2.85c-2.34,5-5.07,10-6.56,15.36a42.12,42.12,0,0,1-10.9,19.13A14.1,14.1,0,0,0,681,714a27.79,27.79,0,0,1-5.25,9.74,15.29,15.29,0,0,0-3.89,11.71A52,52,0,0,1,672,741c-.28,7.09-.93,14.17-.84,21.25.09,6.17.16,12.17-3.1,17.71-.58,1-.59,2.28-.95,3.4-2.35,7.17-2.58,15.08-7.84,21.22-1.34,1.56-1.08,3.62-.83,5.77.84,6.85,1.15,13.76,1.75,20.63.21,2.32,0,5.12,1.15,6.84,4.17,6,2.28,11.11-1.4,16.33a41.52,41.52,0,0,0-3.84,7.1c-1.55,3.56-3,7.2-4.19,10.9-2.4,7.4-4.54,14.66-2.61,22.81,1.6,6.77,2.75,14.24-4.73,19.16-.14.07-.19.28-.3.4-6.07,7.05-12,14.19-18.28,21.09a16.76,16.76,0,0,1-8.89,5.56,121,121,0,0,0-12.18,3.54,11.12,11.12,0,0,0-3.83,2.27c-7,6.17-13.46,12.76-17,21.67-.56,1.4-1.69,2.54-2.41,3.88-1.71,3.11-4.45,6.16-4.75,9.42-.61,6.59-4.75,10.86-8.6,15.11-4.63,5.1-10.24,9.33-15.47,13.88-2.67,2.31-4.77,4.89-4.64,8.62.15,4.2.22,8.41.74,12.57,1,8.07,2.47,16.1,0,24.17-.49,1.61-1.18,3.33-1,4.93.76,9-.74,18.28,2.29,27.15a5.87,5.87,0,0,1-.5,3.91c-1.94,4.13-3.59,8.55-6.33,12.13-5.12,6.7-8.17,14.43-11.91,21.8a11.14,11.14,0,0,1-7.93,6.41c-4,.89-7.85,2.07-11.83,2.88-4.45.92-7.26,3.3-8.21,7.84-.69,3.26-2.88,5.17-5.9,6.46a71.26,71.26,0,0,0-9.57,4.69,25.7,25.7,0,0,0-5.54,4.94c-2.45,2.78-4.22,6.33-7.06,8.57-5,3.93-9.49,8.17-12.28,13.94a19.28,19.28,0,0,1-9.66,9.24c-3.47,1.64-6.51,2.33-10,0-2.75-1.86-5.81-2.74-8.9-.24-.48.4-1.5.13-2.19.16a4.26,4.26,0,0,1-.42-1.23c.51-5.14,1.59-10.23-2.07-15-1.67-2.14-.75-4.06,1.57-6a19.08,19.08,0,0,0,3.76-4c.49-.75.46-2.68-.1-3.13-2.8-2.28-3.72-5.42-4.54-9.43-3.29,1.5-6.32,2.53-9,4.19a18.91,18.91,0,0,1-8.84,3.42,10.28,10.28,0,0,0-7.57,3.53c-3.68,4.38-5.43,4.33-10.08.37-1.56-1.34-3-1.93-5.05-1.16-3.06,1.17-3.23,1.62-3.42,5.83-.27,5.83.95,12.45-6.82,15-.71.22-1.24,1.06-1.72,1.49l-3.93-.81-8.26,7.34c-1.39-4.47-4-6.37-7.35-8.07s-6.65-4-8.26-7.92c-.56-1.37-2.08-2.34-3.42-3.75-.92,1.2-1.74,1.78-1.85,2.48-.48,3.32-2.74,4.36-5.61,4.92a57.91,57.91,0,0,0-8.39,2c-1.81.65-4,1.72-4.87,3.26-2.57,4.82-5.64,8.91-10.71,11.27a2.92,2.92,0,0,0-1.23,1.55c-1.1,2.85-3.52,3.93-6.12,4.9a41.57,41.57,0,0,0-4.46,2.3c.82,1.11,1.1,1.9,1.61,2.1,3.5,1.32,4.08,3.92,3.87,7.31-.31,5.24-.15,10.51-.32,15.76-.14,4.22-.36,8.46-.78,12.65-.46,4.59-.57,4.58-5.36,4.65-2.2,0-4.41-.07-6.6.09a15.67,15.67,0,0,0-4.44.91c-2.45,1-3.09,2.25-1.57,4.29,3.57,4.76,6.6,10.37,13.83,10.7.09,1.4.16,2.66.23,4,.79,0,1.44.12,1.75-.14,4.79-4,11.64-1.94,16.49-5.73a1.75,1.75,0,0,1,1.44.08c1.92.91,3.32,0,4.5-1.32a7.72,7.72,0,0,1,5.92-2.35,7.32,7.32,0,0,0,2.46-1c0-.33-.07-.66-.11-1l-7.18-.47c1.9-1.2,4.15-2.3,5.94-1.77a75.52,75.52,0,0,0,18.82,3c3.17.1,6.33.82,9.5.85,3,0,6-.57,9-.74,6.75-.37,13.5-.7,20.26-1a81.84,81.84,0,0,1,10.15,0c6,.54,12,1.75,18,2.08,9.87.55,19.7,1.18,29.67.32,13.81-1.19,27.75-1.18,41.64-1.41,20.5-.34,41-.48,61.5-.57a18,18,0,0,1,6.33,1.4,9,9,0,0,0,5.32.71c5.69-1,8.55.73,9.29,6.24.58,4.37,2.32,7.63,5.91,10.09a4.64,4.64,0,0,1,2.16,5.23c-.65,3.1-.93,6.27-1.29,9.43a7,7,0,0,0,.25,2.44c1,3.87,1.79,7.75,2.45,11.72,1.14,7,3.29,14.08,10.48,17.88.54.28,1.29,1,1.24,1.49-.47,4.38,5.65,8.28,1,13-.41.42.34,1.89.4,2.87a16.22,16.22,0,0,0,8,13.73,3.39,3.39,0,0,1,1.61,1.86c.47,2.73,2.66,3.62,4.66,4.48-.1.83-.39,1.44-.2,1.81,1.76,3.37,2.61,7.29,6.23,9.54,1.1.69,1.63,2.32,2.35,3.56,1.57,2.72,3,5.56,4.7,8.16,1.57,2.35,3.65,4.36,5.29,6.69,1.23,1.73,2,3.81,3.22,5.55s3.31,2.88,3.25,5.51c0,.67,1.16,1.88,1.9,2a16.66,16.66,0,0,0,6.38-.1c4.52-1.37,9.35-.1,13.81-2.06,1-.44,2.86.64,4.22,1.22.92.39,1.62,1.46,2.53,1.64a17.15,17.15,0,0,0,5.95.34c.85-.16,1.52-1.93,2-3.07,1.14-2.55,3.52-3.16,5.81-3.52s4.9-.69,7.06,0c4.53,1.37,8.66-.51,13-.59a14,14,0,0,1,1.5-3.3c1.65-1.93,13.6-1.5,14.68.73,1.31,2.69,3.32,3,5.8,3,9.83,0,19.66,0,29.48,0a28,28,0,0,0,3.68-.49c.23-3.78-.21-7.32.76-10.41,1.58-5,2.41-9.8.95-14.89-.07-.22.29-.56.59-1.1,3.36,0,5.3-1.81,7.19-4.88,1.62-2.66,2.07-4.61,1.08-7.43a28.61,28.61,0,0,1-1.08-6.45c-.74-6.81,1.45-12.91,5-19.32h47c2.27-5.77,2.27-5.77,7.85-5.81,1.35,0,2.72,0,4.07,0,2.78.07,5.54.2,9,.33-1.62,4.46-2.89,8.1-4.26,11.7-1.48,3.89-2.17,7.78-.57,12.27,1.78.08,3.6.24,5.42.24h21.18q.59,9.4,1.37,18.7h-38.3c-1.18,0-2.38,0-3.56,0-5.28-.07-5.5-.25-5.59-5.38-.07-4,0-8.09,0-11.9-4.05-1.59-18.72-1.93-25.22-.75a21.88,21.88,0,0,0-2.68,11.54c.2,4.4,0,8.82.06,13.22.16,6.23-2.74,10.47-8.48,13.31-.69,7-1.51,14.19-2.06,21.39-.36,4.53-.46,4.92-5,4.93-16.78.06-33.56-.08-50.33.09-7.59.08-15.17.87-22.76,1.1-3.51.11-3.83,2.72-4.65,5.52-1.82.14-3.62.37-5.43.37-11.35,0-22.7.14-34.06,0-9.47-.12-18.94-.54-28.41-.82-3.25-.09-6.23-.52-6.33-4.77a.71.71,0,0,0-.19-.47c-4.85-4.29-6.44-10.93-11.22-15.38-2.09-1.92-3-5.08-4.45-7.71-.54-1-.59-2.73-1.35-3.1-3.44-1.64-4.39-5-6.08-7.87s-3.55-6-5.38-8.92a4.11,4.11,0,0,0-1.43-1.41c-7.61-4.18-8.39-11.63-9.09-19.06-.26-2.7.15-5.45-.19-8.13-.2-1.51-.95-3.78-2-4.21-5.3-2.06-7.28-7.11-8.36-11.34-2.49-9.73-5.75-19.51-4.72-29.87a8,8,0,0,0-3-7.6c-2.12-1.76-2.81-4.41-3.29-7.2-1-5.79-1.76-6.12-7.74-6.44a68,68,0,0,1-7.41-1.28,26.79,26.79,0,0,0-4.5-.58c-22.37.36-44.77.09-67.08,1.44-13.2.8-26.38.9-39.55.78-10.95-.1-21.89-1.54-32.85-2-5-.23-10.09.37-15.14.63-1.69.07-3.36.34-5,.35-7.79,0-15.6.05-23.39,0a14.33,14.33,0,0,0-7,2.07c-3.6,1.9-7.88,2.52-11.89,3.64-1.93.54-4.1.59-5.81,1.51a22.11,22.11,0,0,1-11.25,2.42c-9.14-.13-18.3,0-27.45,0-2.84,0-5.3.19-7.24-3.11-1.7-2.9-5.1-4.78-7.69-7.18a15.33,15.33,0,0,1-5.31-12.6c.34-9.13.07-18.3.09-27.44,0-5.46.74-6.42,6.24-7.2,3-.42,6.08-.29,9.11-.45.82,0,1.6-.27,3.3-.57-4.46-3.12-3.55-7.25-3.57-11.14q0-13.47,0-26.94c0-4.29,0-4.36,4-5.84,2.79-1,5.35-2.16,6.47-5.21.17-.44.58-1.09.94-1.14,3.65-.48,4.73-4.07,7.24-5.92a8,8,0,0,0,2.56-3.58,8,8,0,0,1,6.23-5.35c3.14-.72,6.29-1.42,9.41-2.18,1.87-.46,3.65-1.12,4-3.35.51-3.11,2.73-3.44,5.28-3.43,10.17,0,20.34,0,30.51,0h5.47a30.86,30.86,0,0,0,.57-4.65c-.08-3,1.61-4.35,4.18-4.83,1.82-.34,3.7-.34,5.55-.51,4-.37,8-.9,12-1.1,7-.39,12.63-4.34,18.69-7.21a13.32,13.32,0,0,1,5.34-1.3c11.18-.11,22.37,0,33.55,0a16.69,16.69,0,0,1,2.33.38,16.41,16.41,0,0,0,4.75,9.55c1.19,1.16,1,3.71,1.69,6.61,1.87-2,3.67-3.15,4.44-4.81,3.44-7.32,9.85-11,16.85-13.71,4.28-1.7,7.26-4.12,8.2-8.79.59-3,2.59-4.65,5.46-5.38,4.26-1.11,8.48-2.4,12.76-3.3,4.48-.94,7.29-3.13,9.38-7.48,3.44-7.13,6.48-14.5,11.51-20.86a21.93,21.93,0,0,0,4.51-14.22c-.23-20.33-.14-40.67-.16-61,0-1.53,0-3.05,0-4.58.1-6.36,1.72-11.74,7.41-15.76A74.91,74.91,0,0,0,550,978.15c3.75-4.38,8-8.62,8.58-15.18.28-3.11,2.82-6,4.41-9,.89-1.65,2.2-3.09,2.88-4.8,3.34-8.43,9.4-14.7,16-20.51a14,14,0,0,1,4.72-2.69c4.33-1.44,8.91-2.21,13.06-4a25.68,25.68,0,0,0,8.58-6.05c6.82-7.51,13.28-15.35,19.75-23.16a7.79,7.79,0,0,0,1.43-4.16,47.87,47.87,0,0,0,0-8.12c-1.28-14.53,3.39-27.77,9.07-40.68a20,20,0,0,0,1.57-9.33c-.3-5.9-.75-11.81-.89-17.71-.14-6.61,0-13.23-.06-19.83A14.57,14.57,0,0,1,642,783.4a23.9,23.9,0,0,0,4.32-10.66c.88-5,2.92-9.68,4.3-14.56a33,33,0,0,0,1.61-7.84c.37-11.17.48-22.34.68-33.52a18.24,18.24,0,0,1,4.41-12.16,26.12,26.12,0,0,0,5.09-9.8,14.06,14.06,0,0,1,3.18-5.54A41.52,41.52,0,0,0,675.76,672c1.87-5.77,4.65-11.24,7-16.85a1,1,0,0,1,.26-.43c4.87-3,3.83-7.79,3.85-12.25,0-7.12.17-14.25-.09-21.35-.09-2.41-1.24-4.78-1.93-7.16-.49-1.75-1.43-3.48-1.45-5.23-.14-10.85-.12-21.69,0-32.53,0-5.27,1.08-6.54,6.21-6.35,5.61.19,9.07-2.08,10.58-7.4,1.84-6.5,7.42-10.38,11-15.67,2-2.92,4.16-5.71,5.82-8.79s3.27-5.49,7-5.76a5.57,5.57,0,0,0,2.7-1.25c4.56-3.44,9-7,13.59-10.42a4,4,0,0,1,1.84-.77c4.19-.48,8.38-1.18,12.58-1.27,9.66-.18,19.33-.32,29,0a128.93,128.93,0,0,1,17,2.2A9.26,9.26,0,0,1,807.8,526c1.05,2.25,3,2.83,5.2,3.59,6.19,2.2,12.09,5,16.87,9.75a22.49,22.49,0,0,0,5,3.22c.87.48,2.3.33,2.83,1,3.33,4.08,8,7.37,8.81,13.07.81,5.46,3.11,7.74,8.58,7.82,4.57.07,9.15.16,13.71,0,5.4-.21,10.4,1.17,15.34,3,.95.35,2.15.67,2.66,1.41,2.38,3.49,5.83,3.44,9.48,3.49,2.11,0,4.21.85,6.32,1.28a31.7,31.7,0,0,0,5.41,1c5.08.15,10.18-.18,15.24.14a58.53,58.53,0,0,1,12.44,1.95c7.53,2.15,11.25-.17,12-8.14.09-1,.07-2,.12-3,.08-1.75,1-3.15,2.71-3.09,3.93.15,4.56-2.8,5.65-5.44,1-2.46,2.16-4.88,3.13-7.37a4.41,4.41,0,0,1,4.13-3.17,3.38,3.38,0,0,0,3.47-3.08c.3-2.35,1.91-3.05,3.88-3.31a34.32,34.32,0,0,1,4.54-.38c10.34,0,20.67,0,31,0,2.93,0,5.32.31,6.47,3.55.67,1.92,2.28,2.16,4.2,1.6,5.79-1.69,11.22-4.56,17.44-5,2.16-.16,4.35-1.61,6.29-2.87,4.62-3,10.23-3.11,15-5.48,2.39-1.18,4.61-2.69,7.35-4.31a8.46,8.46,0,0,0,.57-1.9c.29-3.07,2.17-3.83,4.93-3.81,8.46.07,16.93,0,25.41,0,1.1,0,2.19.05,3.28.09Q1090.84,531.07,1084.44,540.83Z" transform="translate(-270 -173.98)"/><path class="cls-1" d="M1518.38,1420.82c0,1.82-.16,3.65-.27,5.83-2.23.47-4.16,1-6.12,1.27q-37.18,5.63-74.37,11.18c-10.53,1.59-21.07,3.11-31.6,4.72-5.37.83-6,1.39-5.83,6.83.23,6.58-1.51,12.4-5.86,17.36-4,4.57-8,9.13-12.15,13.61-3.19,3.46-3.42,4.54-.45,8.21a9.6,9.6,0,0,1,2.25,6.51c0,10.34.07,20.68-.08,31a22.39,22.39,0,0,1-1.39,6.34c-1.07,3.29-1.51,6.28-.23,9.83a38.6,38.6,0,0,1,1.93,11.89c.27,9.48,0,19,.11,28.46,0,3.07-.75,5.35-3.52,7.31-3.35,2.38-5.16,6.12-6.14,10.18-.56,2.27-1.39,4.47-1.87,6.75-1,4.78-2.23,9.56-2.61,14.4a6.63,6.63,0,0,0,4.13,6.93c2.08.92,3.71,2.82,5.57,4.25a7.91,7.91,0,0,0,2.47,1.71c5.79,1.49,8.89,6,12.5,10.22,2.63,3,5.42,5.72,10.73,4.42,14.89-3.66,30.19-2.25,45.35-2.33,5.37,0,5.54.18,5.54,5.87q0,35.34,0,70.67c0,13.21,0,26.42-.06,39.65,0,5.61-.48,6-6.13,6.06-11.36,0-22.78.75-34-.21-11.83-1-23.64-.94-35.47-1.15a4.92,4.92,0,0,1-2.9-.66c-2.32-2-5-1.7-7.73-1.79-4.48-.16-6.36-1.58-7.71-5.88-.51-1.61-.74-3.3-1.14-5-.54-2.3-1-4.51-3.23-6.07-1.28-.89-1.94-2.71-2.73-4.18-.63-1.19-.88-2.59-1.57-3.74-2.85-4.75-5.9-9.26-12.62-8a7,7,0,0,1-2-.13,4.77,4.77,0,0,1-1-.28,61.31,61.31,0,0,1-4.19-6.78,16.18,16.18,0,0,1-1.53-6.23c-.14-6.28-2.68-11.34-8-14.4-2.79-1.59-6.37-2-9.65-2.47-2.86-.4-5.69-.33-7.92-2.71a4.26,4.26,0,0,0-2.83-.8c-2.81,0-5.35-.14-6.75-3.33-.36-.79-2.36-1.11-3.64-1.17-3.71-.16-7.45-.12-11.17-.09-2.69,0-4.62-1.16-6.8-2.76-4.83-3.56-7.1-8.38-8.61-13.88-1.38-5-5-6.89-9.41-4.27-3.2,1.91-6.33,2-9.68,2-9.33,0-18.64.07-28-.06a34.79,34.79,0,0,1-6.37-1.24c-2-.43-3.93-.93-5.9-1.36-1.63-.34-3.29-.63-4.94-1a46.9,46.9,0,0,0-6.85-1.29c-4.59-.17-9.05-.33-13.52-1.79-2.78-.9-6-.49-9.07-.47a7.85,7.85,0,0,1-6.32-2.47c-2.75-2.89-6.24-4.05-10.45-4.32-5.69-.37-11.28-1.87-17.08-1.64a3.74,3.74,0,0,1-2.88-2.17c-.59-2.86-2.77-3.93-4.88-4.74-5.11-2-6.34-6.07-6.87-10.84-.37-3.3-1-6.6-1.59-10.71-2.73,1.73-5.13,2.69-6.73,4.4-2.84,3.07-6.4,3.76-10.11,3.81-11.36.16-22.71.12-34.06,0-1.76,0-3.53-.87-5.23-1.51s-3.28-1.82-5-2.15c-2.61-.5-3.25-2-3.22-4.31,0-4.75.05-9.49,0-14.23-.07-4.26-.17-4.72-4.52-5.13-7.23-.66-14.5-.82-21.77-1.12a6.16,6.16,0,0,0-3,.63c-8,3.94-16.6,4.35-25.26,4.41q-10.44.07-20.85,0a12.87,12.87,0,0,0-7.16,1.91c-3.85,2.34-8.41,3.47-11.76,6.78a4.62,4.62,0,0,1-2.91.65c-8.59,0-17.16,0-25.76,0q27.72-12.74,55.2-28.46a9.83,9.83,0,0,0,2.2.28,32.67,32.67,0,0,0,10-1.6,90.64,90.64,0,0,0,12-5.23c3.43-1.73,6.85-2.88,10.73-2.14,5.63,1.07,11.26,2.16,16.92,3.09,6.19,1,6.24,1,10.29-3.7.86-1,1.34-2.31,2.17-3.35a5.15,5.15,0,0,1,2.18-1.89c3.25-1,7.48,1.79,8.26,5.18.37,1.61.91,3.17,1.37,4.71,3.72.61,7,1.12,10.36,1.71,3.59.63,4.8,2.19,5.19,6.11a6.08,6.08,0,0,0,.92,2.77,5.54,5.54,0,0,1-.21,6.67c-1.53,2.11-3.44,3.94-5.51,6.25,1.1.52,2,1,3,1.41a29.25,29.25,0,0,1,3.79,1.33c5.23,3,7.69,2.67,12.53-1.12,3.92-3.06,7.62-6.76,13.45-5.95,1.48.21,3.14-1,4.77-1.45,2.91-.76,5.82-1.83,8.77-2,5.8-.3,11.48-.76,16.69-3.68a10.63,10.63,0,0,1,2.77-.7c1.16,3.29,1.16,3.29.38,5.42-1.32,3.51-2.38,7-.42,10.71.54,1,0,2.62.08,3.94.4,3.89.85,7.64,5.23,9.58,3.32,1.46,6.6,3.35,7.27,7.61,1-.18,1.85-.07,2.28-.44,3.87-3.25,7.21-2.41,10.78.75,1.36,1.2,3.94,2.18,5.54,1.74,4.58-1.25,7.63,1.15,10.32,3.81,2.23,2.19,4.54,2.52,7.33,2.6,3.17.07,6.5,0,9.47.93,3.21,1,6.11,1.56,9.38.54a9.3,9.3,0,0,1,9.11,1.49c1.23,1,3.07,1.2,4.68,1.61,2.61.65,5.24,1.2,7.87,1.71,1.1.2,2.66.73,3.3.23,2.48-2,5.37-1.72,8.2-2.11,5.15-.74,8.42-4.4,8.6-9.69a12.42,12.42,0,0,1,2.22-7.12c.74-1.05.61-2.76.77-4.19a26.37,26.37,0,0,0,0-3c2.76-.59,5.21-1.17,7.69-1.61,2-.35,3.38.43,3.79,2.44a34.6,34.6,0,0,1,.85,6c.15,4.06,1.57,7.19,5.4,9,1.52.73,2.88,1.77,4.37,2.58a13.69,13.69,0,0,1,7.07,9.41c1.36,5.82,3.56,11.11,8.81,14.9,4,2.88,8.1,4.09,12.6,2.09s7.27-1.56,9.66,2.62c1.24,2.18,2.74,2.48,4.86,2.77a23.69,23.69,0,0,1,5.51,2c.62.23,1.33,1.11,1.7,1,3.4-1.45,6.15,1.32,9.26,1.34a10,10,0,0,1,7.94,3.91,92.24,92.24,0,0,1,7,10.44c.43.72-.36,2.13-.52,3.24s-.79,2.77-.3,3.71c1.45,2.78,3.36,5.32,5.24,8.2a22.52,22.52,0,0,0,2.29-1.85c1.68-1.74,3.57-1.52,4.89.05a88,88,0,0,1,8.45,11.28c1.61,2.72,2.26,5.92,5.15,7.91.91.64,1.18,2.32,1.56,3.59.8,2.58,1.23,5.29,2.24,7.78s2.78,4.89,5.68,4.06a10.06,10.06,0,0,1,10,2.41c1.76-1,3.28-1.78,4.67-2.74,5.69-4,13.13-4.72,18.21-9.88.61-.6,2.32-.6,3.27-.25a41,41,0,0,1,5.21,2.78c-1.53,2.78-2.81,5.1-4,7.3,2.74,3.86,7,5.59,10.65,4.18s2.63-4.76,2.64-7.47c.09-23.56.09-47.11.13-70.67a35,35,0,0,0-.06-3.55c-.28-2.36-1.48-3.3-3.79-2.69-1.27.32-2.36,1.27-3.61,1.74s-3.16,1.54-4.22,1.07c-3-1.29-5.31,0-7.69,1.18-4.78,2.43-5.36,7.12-1.4,10.61.7.62,1.32,1.34,1.85,1.88-.64,2.16-2,2.15-3.35,1.77-3.59-1-7.46-1.5-10.63-3.27a12.88,12.88,0,0,0-10.62-1.21c-4.44,1.26-6.23.22-8.67-3.88-1.46-2.47-2.65-5.2-4.51-7.34-3.93-4.54-8.18-8.82-12.39-13.11-.64-.66-1.8-.78-2.65-1.25-2-1.12-4-2.29-6-3.49-.85-.52-1.55-1.31-2.44-1.74-4.68-2.3-7.27-6-8.57-11.05-1-3.87-2.88-7.52-4.59-11.16A9.32,9.32,0,0,1,1346,1617a30.63,30.63,0,0,0,5.87-16.86c.28-4.35,1.72-8.1,2.91-12.05a25.34,25.34,0,0,0,1.07-3.85c.8-5.24,3-9.61,7.49-12.63,1.89-1.28,2.34-2.79,1.63-5.23-1.2-4.05-4.19-7.78-2.67-12.5.26-.77-.6-1.88-.84-2.86s-.8-2.39-.56-3.43a5.69,5.69,0,0,0-1.4-5.6c-1.32-1.44-1.31-3-.13-4.6a11.76,11.76,0,0,0,2.34-8.63,24.29,24.29,0,0,1,2.45-14.27c1.06-2.14.62-3.73-.66-5.59a24.88,24.88,0,0,1-2.55-5.39c-1-2.66-1.72-5.46-2.84-8.08-1-2.3-3.17-4.34-3.41-6.65-.51-4.66-3.3-6.22-7.14-7.35-1.29-.38-3.26-1.78-3.21-2.6.07-1.38,1.51-2.69,2.46-4a3.61,3.61,0,0,1,1.29-.79c12.66-6.3,21.91-16.34,29.79-27.71,3.46-5,5.58-10.58,1.72-16.62-.46-.7-.18-1.87-.25-2.66.57-.36.84-.64,1.15-.69,13.33-2.08,26.67-4.18,40-6.19,11.86-1.78,23.74-3.42,35.6-5.18q18.79-2.8,37.59-5.74a57.37,57.37,0,0,0,6.12-1.66,61.32,61.32,0,0,0-7.53-19.22c-3.09-5.25-6.74-10.18-9.76-15.46a37.56,37.56,0,0,1-4.18-10.23c-1.76-8-3.9-15.87-8.18-22.83-6.37-10.33-14-19.37-25.25-25-6.44-3.23-12.62-7.25-15.57-14.65a65.49,65.49,0,0,0-6-11c-2.08-3.2-3.73-6.41-3.77-10.32a9.24,9.24,0,0,0-.51-3.49c-3.33-7.67-2.08-14.39,3.64-20.52,3.3-3.56,3.39-8,2.27-12.48a71.42,71.42,0,0,0-2.94-8.1c-1.51-4-3.52-7.78-4.51-11.85a61.79,61.79,0,0,0-6.13-15.48c-4.68-8.54-6.33-17.43-2-26.71a23.08,23.08,0,0,0,1.67-4.79c.6-2.79,1.44-5.64,1.34-8.43a119.45,119.45,0,0,0-1.53-14.09c-1-6.37-1.91-13-6.17-18q7.5-14.73,14.72-29.78c-.05,1.12-.07,2.25-.06,3.37a6.74,6.74,0,0,0,1.31,4.2c6.46,7,8,15.77,9.23,24.78,2.22,16,.86,32.15,1.16,48.21,0,3,.34,5.69,2,8.24a15.42,15.42,0,0,1,1.43,3.24c2.54,7.17,5.24,14.29,7.52,21.55a42.11,42.11,0,0,1,2.2,11.33c.28,11.35.14,22.71.08,34,0,7.28.4,7.13,2.36,13.87,2.61,9,9.13,14.11,16.67,18.15,17.8,9.51,28,24.6,32.56,43.75a52.58,52.58,0,0,0,7.56,18.11c4.89,7.1,9.76,14.24,12.67,22.51a35.4,35.4,0,0,1,2.41,12.38C1518.32,1402.17,1518.41,1411.49,1518.38,1420.82Z" transform="translate(-270 -173.98)"/><path class="cls-2" d="M925,1627.43c-53.05-151.7,247.54-1046.31,564-1452.82a1,1,0,0,0,.07.15C1195.65,610.25,877.46,1488.15,925,1627.43Z" transform="translate(-270 -173.98)"/><path class="cls-1" d="M1492.53,175.38c-3.21,4.12-6.4,8.28-9.61,12.5-27.6,36.37-55.08,76.36-82.18,119.18-40.72,64.31-80.62,135-118.92,209.23q-5.37,10.4-10.68,20.88C1096.27,881.71,956.61,1296.31,927,1509.5q-2.49,17.94-3.92,33.94a381.88,381.88,0,0,0-1.65,49.13,117.81,117.81,0,0,0,7.1,35.63c.1.27.2.54.31.82l-1.41.63c-34.16-76.58-56.94-164.44-65-261.42q-.79-9.3-1.37-18.7c-10.81-167.85,18.28-358,91.91-547.25,36.05-92.68,80.14-178.31,130-255.23l2.5-3.86c.45-.69.89-1.37,1.34-2q6.4-9.78,12.92-19.33h0c56.77-83.31,120.36-155.63,187.69-214.76,65.54-57.57,134.62-102.61,204.41-133.08C1492.13,174.43,1492.32,174.9,1492.53,175.38Z" transform="translate(-270 -173.98)"/><path class="cls-1" d="M1543.94,705q-5.81,38.31-14.06,77.23a1426.5,1426.5,0,0,1-66.08,220.44q-20.55,52.77-44.42,102.41-7.22,15-14.72,29.78c-107.09,210.23-256.16,372.66-413.58,462.74q-27.45,15.72-55.2,28.46c-3.18,1.45-5.13,1.65-8.32,3.05-.11-.27-.2-.56-.3-.83-2.06-6-4.66-12.18-5.37-20.86-1.09-13.19-.67-29.34,1.15-48.13.14-1.42.28-2.84.43-4.29q2-18.63,5.65-40.41C964,1307.4,1111.41,895.88,1283.5,544.39q5.7-11.62,11.42-23.15c37.48-75.49,76-147.88,114.73-214.5,27.23-46.86,54.55-90.86,81.64-131.09,17.91,40.46,32.32,84.37,43.09,131.09C1561.71,425.23,1565.63,561.67,1543.94,705Z" transform="translate(-270 -173.98)"/></g></svg>